<svg xmlns="http://www.w3.org/2000/svg" width="62.222" height="50" viewBox="0 0 62.222 50">
  <g id="chalk-board" transform="translate(-8 -56)">
    <path id="Path_60" data-name="Path 60" d="M69.219,56H9a1,1,0,0,0-1,1v44.158a1,1,0,0,0,1,1h47.8l3.54,3.541a1,1,0,0,0,1.42,0l2.839-2.839a1.007,1.007,0,0,0,.294-.7h4.319a1,1,0,0,0,1-1V57A1,1,0,0,0,69.219,56Zm-8.162,47.576-9.934-9.934,1.419-1.419,9.934,9.934ZM49.7,95.061l1.083,1.083H30.079V93.133a3.015,3.015,0,0,0-3.011-3.011H19.039a3.015,3.015,0,0,0-3.011,3.011v3.011H14.022V62.022H64.2V96.144H59.3l-5.34-5.34a2.008,2.008,0,0,0-2.838,0l-1.42,1.42A2.008,2.008,0,0,0,49.7,95.061ZM28.072,93.133v3.011H18.036V93.133a1,1,0,0,1,1-1h8.029a1,1,0,0,1,1,1Zm40.143,7.025h-4.9l-2.007-2.007h3.9a1,1,0,0,0,1-1V61.018a1,1,0,0,0-1-1H13.018a1,1,0,0,0-1,1V97.147a1,1,0,0,0,1,1H52.793l2.007,2.007H10.007V58.007H68.215Z" fill="#002d72"/>
    <path id="Path_61" data-name="Path 61" d="M159.789,168.617a3.788,3.788,0,0,1-.5.728c-3.226,3.871-2.927,7.243-1.571,9.109,1.433,1.972,4.074,2.559,6.729,1.5.792-.317,1.385-.331,1.76-.042,1.037.8,1.044,3.719.886,5.007a1,1,0,0,0,.871,1.12,1.02,1.02,0,0,0,.125.008,1,1,0,0,0,.995-.879c.065-.52.571-5.13-1.65-6.844a3.585,3.585,0,0,0-3.733-.234c-1.774.71-3.485.391-4.36-.814-.911-1.254-1-3.659,1.489-6.645,1.061-1.274,1.312-2.334.744-3.153-.673-.971-2.29-1.607-9.491.3-3.751.992-7.373,2.257-7.409,2.269a1,1,0,1,0,.663,1.894c.033-.012,3.316-1.158,6.837-2.11C157.5,168.388,159.268,168.5,159.789,168.617Z" transform="translate(-118.939 -96.676)" fill="#78be21"/>
    <path id="Path_62" data-name="Path 62" d="M113.3,209.294l-1,1a1,1,0,1,0,1.419,1.419l1-1a1,1,0,0,0-1.419-1.419Z" transform="translate(-90.953 -133.806)" fill="#78be21"/>
  </g>
</svg>
