<svg xmlns="http://www.w3.org/2000/svg" width="7.675" height="4.838" viewBox="0 0 7.675 4.838">
  <g id="chevron-arrow-down" transform="translate(0 -82.226)">
    <g id="Group_16" data-name="Group 16" transform="translate(0 82.226)">
      <path id="Path_28" data-name="Path 28" d="M7.493,82.778l-.369-.37a.631.631,0,0,0-.448-.182.6.6,0,0,0-.443.182L3.838,84.8,1.443,82.408A.6.6,0,0,0,1,82.226a.631.631,0,0,0-.448.182l-.365.37A.611.611,0,0,0,0,83.226a.586.586,0,0,0,.187.443l3.207,3.207a.586.586,0,0,0,.443.187.611.611,0,0,0,.448-.187L7.493,83.67a.6.6,0,0,0,.182-.443A.631.631,0,0,0,7.493,82.778Z" transform="translate(0 -82.226)" fill="#fff"/>
    </g>
  </g>
</svg>
