<svg xmlns="http://www.w3.org/2000/svg" width="62" height="50" viewBox="0 0 62 50">
  <g id="website" transform="translate(-8 -56)">
    <path id="Path_140" data-name="Path 140" d="M66.5,56h-55A3.5,3.5,0,0,0,8,59.5v43a3.5,3.5,0,0,0,3.5,3.5h55a3.5,3.5,0,0,0,3.5-3.5v-43A3.5,3.5,0,0,0,66.5,56ZM68,102.5a1.5,1.5,0,0,1-1.5,1.5h-55a1.5,1.5,0,0,1-1.5-1.5V64H68ZM68,62H10V59.5A1.5,1.5,0,0,1,11.5,58h55A1.5,1.5,0,0,1,68,59.5Z" fill="#002d72"/>
    <path id="Path_141" data-name="Path 141" d="M33,82h1a1,1,0,0,0,0-2H33a1,1,0,0,0,0,2Z" transform="translate(-21 -21)" fill="#ff5959"/>
    <path id="Path_142" data-name="Path 142" d="M65,82h1a1,1,0,0,0,0-2H65a1,1,0,0,0,0,2Z" transform="translate(-49 -21)" fill="#ffbd41"/>
    <path id="Path_143" data-name="Path 143" d="M97,82h1a1,1,0,0,0,0-2H97a1,1,0,0,0,0,2Z" transform="translate(-77 -21)" fill="#78be21"/>
    <path id="Path_144" data-name="Path 144" d="M370,416h-9a1,1,0,0,0,0,2h9a1,1,0,0,0,0-2Z" transform="translate(-308 -315)" fill="#e2e2e2"/>
    <path id="Path_145" data-name="Path 145" d="M458,416h-1a1,1,0,0,0,0,2h1a1,1,0,0,0,0-2Z" transform="translate(-392 -315)" fill="#e2e2e2"/>
    <path id="Path_146" data-name="Path 146" d="M165,164h-4.461a9.833,9.833,0,0,0-.673-1.624l3.155-3.155a1,1,0,0,0,0-1.414l-2.829-2.829a1,1,0,0,0-1.414,0l-3.155,3.155a9.836,9.836,0,0,0-1.624-.673V153a1,1,0,0,0-1-1h-4a1,1,0,0,0-1,1v4.461a9.835,9.835,0,0,0-1.624.673l-3.155-3.155a1,1,0,0,0-1.414,0l-2.829,2.829a1,1,0,0,0,0,1.414l3.155,3.155a9.835,9.835,0,0,0-.673,1.624H137a1,1,0,0,0-1,1v4a1,1,0,0,0,1,1h4.461a9.835,9.835,0,0,0,.673,1.624l-3.155,3.155a1,1,0,0,0,0,1.414l2.829,2.829a1,1,0,0,0,1.414,0l3.155-3.155a9.833,9.833,0,0,0,1.624.673V181a1,1,0,0,0,1,1h4a1,1,0,0,0,1-1v-4.461a9.833,9.833,0,0,0,1.624-.673l3.155,3.155a1,1,0,0,0,1.414,0l2.829-2.829a1,1,0,0,0,0-1.414l-3.155-3.155a9.834,9.834,0,0,0,.673-1.624H165a1,1,0,0,0,1-1v-4A1,1,0,0,0,165,164Zm-1,4h-4.226a1,1,0,0,0-.975.779,7.934,7.934,0,0,1-1.026,2.478,1,1,0,0,0,.139,1.241l2.989,2.988-1.415,1.415-2.988-2.989a1,1,0,0,0-1.241-.139,7.934,7.934,0,0,1-2.478,1.026,1,1,0,0,0-.779.975V180h-2v-4.226a1,1,0,0,0-.779-.975,7.934,7.934,0,0,1-2.478-1.026,1,1,0,0,0-1.241.139l-2.988,2.989-1.415-1.415,2.989-2.988a1,1,0,0,0,.139-1.241,7.934,7.934,0,0,1-1.026-2.478,1,1,0,0,0-.975-.779H138v-2h4.226a1,1,0,0,0,.975-.779,7.933,7.933,0,0,1,1.026-2.478,1,1,0,0,0-.139-1.241l-2.989-2.988,1.415-1.415,2.988,2.989a1,1,0,0,0,1.241.139,7.934,7.934,0,0,1,2.478-1.026,1,1,0,0,0,.779-.975V154h2v4.226a1,1,0,0,0,.779.975,7.934,7.934,0,0,1,2.478,1.026,1,1,0,0,0,1.241-.139l2.988-2.989,1.415,1.415-2.989,2.988a1,1,0,0,0-.139,1.241,7.933,7.933,0,0,1,1.026,2.477,1,1,0,0,0,.975.779H164Z" transform="translate(-112 -84)" fill="#2960b5"/>
    <path id="Path_147" data-name="Path 147" d="M221,232a5,5,0,1,0,5,5A5,5,0,0,0,221,232Zm0,8a3,3,0,1,1,3-3A3,3,0,0,1,221,240Z" transform="translate(-182 -154)" fill="rgba(41,96,181,0.83)"/>
  </g>
</svg>
