<svg id="instagram" xmlns="http://www.w3.org/2000/svg" width="14.335" height="14.338" viewBox="0 0 14.335 14.338">
  <path id="Path_22" data-name="Path 22" d="M14.748,4.215a5.239,5.239,0,0,0-.333-1.739,3.673,3.673,0,0,0-2.1-2.1A5.253,5.253,0,0,0,10.577.045C9.81.008,9.566,0,7.62,0S5.429.008,4.665.042A5.241,5.241,0,0,0,2.925.375,3.5,3.5,0,0,0,1.654,1.2,3.53,3.53,0,0,0,.827,2.473,5.253,5.253,0,0,0,.494,4.213C.458,4.98.449,5.224.449,7.17s.008,2.19.042,2.955a5.239,5.239,0,0,0,.333,1.739,3.672,3.672,0,0,0,2.1,2.1,5.253,5.253,0,0,0,1.739.333c.765.034,1.008.042,2.955.042s2.19-.008,2.955-.042a5.238,5.238,0,0,0,1.739-.333,3.667,3.667,0,0,0,2.1-2.1,5.257,5.257,0,0,0,.333-1.739c.034-.765.042-1.008.042-2.955S14.781,4.98,14.748,4.215Zm-1.291,5.854a3.93,3.93,0,0,1-.247,1.33,2.378,2.378,0,0,1-1.361,1.361,3.944,3.944,0,0,1-1.33.246c-.756.034-.983.042-2.9.042s-2.143-.008-2.9-.042a3.928,3.928,0,0,1-1.33-.246,2.206,2.206,0,0,1-.823-.535,2.229,2.229,0,0,1-.535-.823,3.944,3.944,0,0,1-.246-1.33c-.034-.756-.042-.983-.042-2.9s.008-2.143.042-2.9a3.928,3.928,0,0,1,.246-1.33,2.179,2.179,0,0,1,.538-.824A2.226,2.226,0,0,1,3.4,1.591a3.947,3.947,0,0,1,1.33-.247c.756-.034.983-.042,2.9-.042s2.143.008,2.9.042a3.93,3.93,0,0,1,1.33.247,2.2,2.2,0,0,1,.823.535,2.229,2.229,0,0,1,.535.824,3.946,3.946,0,0,1,.247,1.33c.034.756.042.983.042,2.9S13.49,9.313,13.457,10.069Zm0,0" transform="translate(-0.449 0)" fill="#fff"/>
  <path id="Path_23" data-name="Path 23" d="M128.632,124.5a3.683,3.683,0,1,0,3.683,3.683A3.684,3.684,0,0,0,128.632,124.5Zm0,6.072a2.389,2.389,0,1,1,2.389-2.389A2.39,2.39,0,0,1,128.632,130.572Zm0,0" transform="translate(-121.462 -121.013)" fill="#fff"/>
  <path id="Path_24" data-name="Path 24" d="M364.169,89.461a.86.86,0,1,1-.86-.86A.86.86,0,0,1,364.169,89.461Zm0,0" transform="translate(-352.31 -86.12)" fill="#fff"/>
</svg>
