<svg xmlns="http://www.w3.org/2000/svg" width="51.767" height="60" viewBox="0 0 51.767 60">
  <g id="service_1_" data-name="service (1)" transform="translate(-32.909 -0.001)">
    <g id="Group_48" data-name="Group 48" transform="translate(51.898 9.01)">
      <g id="Group_47" data-name="Group 47">
        <path id="Path_70" data-name="Path 70" d="M197.617,73.2l-.042-.042a3.945,3.945,0,0,0-5.528,0l-.326.322-.326-.322a3.945,3.945,0,0,0-5.528,0,3.857,3.857,0,0,0-.042,5.454l.042.042,5.151,5.09a1,1,0,0,0,1.407,0l5.151-5.09A3.857,3.857,0,0,0,197.617,73.2ZM196.193,77.2l-.026.026-4.447,4.395-4.447-4.395a1.856,1.856,0,0,1-.026-2.624l.026-.026a1.938,1.938,0,0,1,2.713,0l1.03,1.018a1,1,0,0,0,1.407,0l1.03-1.018a1.939,1.939,0,0,1,2.713,0A1.856,1.856,0,0,1,196.193,77.2Z" transform="translate(-184.716 -72.027)" fill="#ff5959"/>
      </g>
    </g>
    <g id="Group_50" data-name="Group 50" transform="translate(44.893 0.001)">
      <g id="Group_49" data-name="Group 49">
        <path id="Path_71" data-name="Path 71" d="M156.136,11.623l-1.935-.851c-.091-.341-.192-.665-.3-.975l1.072-1.844a1,1,0,0,0,.008-.992,14.294,14.294,0,0,0-1.84-2.562.991.991,0,0,0-.967-.307l-2.04.465q-.38-.3-.79-.581l-.2-2.144a1,1,0,0,0-.576-.816,13.75,13.75,0,0,0-2.961-.992.99.99,0,0,0-.962.324l-1.42,1.643h-.918L140.887.347a.993.993,0,0,0-.961-.324,13.752,13.752,0,0,0-2.962.992,1,1,0,0,0-.576.816l-.2,2.144q-.411.277-.79.581l-2.039-.465a.992.992,0,0,0-.967.307,14.261,14.261,0,0,0-1.84,2.562,1,1,0,0,0,.008.992L131.636,9.8c-.111.309-.212.629-.3.967l-2.01.853a1,1,0,0,0-.61.922v2.945a1,1,0,0,0,.61.922l2.01.853c.09.338.191.659.3.967l-1.072,1.844a1,1,0,0,0-.008.993,14.366,14.366,0,0,0,1.839,2.561.99.99,0,0,0,.967.307l2.04-.465q.38.3.79.581l.2,2.144a1,1,0,0,0,.576.816,13.75,13.75,0,0,0,2.961.992,1,1,0,0,0,.962-.324l1.421-1.644h.917l1.421,1.644a1,1,0,0,0,.757.346.971.971,0,0,0,.2-.022,13.75,13.75,0,0,0,2.961-.992,1,1,0,0,0,.576-.816l.2-2.144q.411-.277.79-.581l2.039.464a.989.989,0,0,0,.967-.307,14.263,14.263,0,0,0,1.84-2.562,1,1,0,0,0-.008-.992L153.9,18.226c.112-.311.213-.634.3-.975l1.936-.851a1,1,0,0,0,.6-.916V12.538A1,1,0,0,0,156.136,11.623Zm-1.4,3.208-1.787.786a1,1,0,0,0-.573.692,10,10,0,0,1-.507,1.62,1,1,0,0,0,.059.887l1.019,1.753a12.358,12.358,0,0,1-.917,1.276l-1.936-.441a.992.992,0,0,0-.883.224,9.889,9.889,0,0,1-1.343.99,1,1,0,0,0-.472.76l-.188,2.041a11.747,11.747,0,0,1-1.443.487l-1.323-1.53a1,1,0,0,0-.757-.346H141.85a1,1,0,0,0-.757.346l-1.323,1.53a11.726,11.726,0,0,1-1.443-.487l-.188-2.041a1,1,0,0,0-.471-.76,10,10,0,0,1-1.345-.99.991.991,0,0,0-.882-.224l-1.935.441a12.261,12.261,0,0,1-.917-1.277l1.019-1.752a1,1,0,0,0,.059-.887,10.008,10.008,0,0,1-.507-1.62,1,1,0,0,0-.584-.7l-1.86-.79V13.2l1.86-.79a1,1,0,0,0,.584-.7,10,10,0,0,1,.507-1.62,1,1,0,0,0-.059-.887l-1.019-1.753a12.36,12.36,0,0,1,.917-1.276l1.936.441a.993.993,0,0,0,.884-.224,9.89,9.89,0,0,1,1.343-.99,1,1,0,0,0,.472-.76l.188-2.04a11.925,11.925,0,0,1,1.443-.488l1.323,1.53a1,1,0,0,0,.757.346h1.833a1,1,0,0,0,.757-.346l1.323-1.53a11.916,11.916,0,0,1,1.443.488l.188,2.04a1,1,0,0,0,.472.76,10,10,0,0,1,1.345.99.989.989,0,0,0,.882.224l1.936-.441a12.338,12.338,0,0,1,.917,1.276l-1.019,1.753a1,1,0,0,0-.059.887,10.043,10.043,0,0,1,.507,1.62,1,1,0,0,0,.573.692l1.787.786v1.64Z" transform="translate(-128.714 -0.001)" fill="#002d72"/>
      </g>
    </g>
    <g id="Group_52" data-name="Group 52" transform="translate(32.909 27.105)">
      <g id="Group_51" data-name="Group 51">
        <path id="Path_72" data-name="Path 72" d="M82.363,217.206a4.386,4.386,0,0,0-5.9,1.717L73.445,224.3a3.876,3.876,0,0,1-1.805,1.154l-13.632,4.078a1.1,1.1,0,0,1-.874-.1,1.16,1.16,0,0,1-.552-.748,1.18,1.18,0,0,1,.837-1.423l6.154-1.89a3.277,3.277,0,0,0,2.311-3.87A3.216,3.216,0,0,0,62,219.134q-.081.02-.161.044l-13.21,3.963a14.766,14.766,0,0,0-10.006,9.265l-5.653,15.81a1,1,0,0,0,.94,1.338l12.985.026h0a1,1,0,0,0,.98-.8l.69-3.32a3.8,3.8,0,0,1,2.527-2.989L77.206,233.9a3.755,3.755,0,0,0,2.117-1.754l4.831-9A4.387,4.387,0,0,0,82.363,217.206Zm.059,4.932-.032.062-4.824,8.983a1.75,1.75,0,0,1-.986.813l-26.124,8.579A5.783,5.783,0,0,0,46.6,245.1l-.516,2.479-10.752-.022L40.5,233.08a12.774,12.774,0,0,1,8.673-8.015l13.234-3.97a1.2,1.2,0,0,1,.949.108,1.227,1.227,0,0,1,.582.779,1.3,1.3,0,0,1-.956,1.472l-6.128,1.882a3.192,3.192,0,0,0-.726,5.826,3.077,3.077,0,0,0,2.449.287l13.632-4.078a5.876,5.876,0,0,0,2.82-1.849.952.952,0,0,0,.107-.155L78.21,219.9a2.381,2.381,0,0,1,3.146-.965h0A2.385,2.385,0,0,1,82.423,222.138Z" transform="translate(-32.909 -216.684)" fill="#002d72"/>
      </g>
    </g>
  </g>
</svg>
