<svg xmlns="http://www.w3.org/2000/svg" width="21.286" height="20" viewBox="0 0 21.286 20">
  <path id="video-player" d="M21.286,10.714A1.714,1.714,0,0,0,19.571,9H1.714A1.714,1.714,0,0,0,0,10.714V27.286A1.714,1.714,0,0,0,1.714,29H19.571a1.714,1.714,0,0,0,1.714-1.714ZM6.5,11.143H9.571v2.429H6.5ZM4.357,26.857H2.143V24.429H4.357Zm0-13.286H2.143V11.143H4.357ZM9.571,26.857H6.5V24.429H9.571Zm-.786-5.878V17.021c0-.589.419-.807.912-.485l2.874,1.877a.651.651,0,0,1,0,1.174L9.7,21.464C9.2,21.787,8.786,21.568,8.786,20.979Zm6,5.878H11.714V24.429h3.071Zm0-13.286H11.714V11.143h3.071Zm4.357,13.286H16.929V24.429h2.214Zm0-13.286H16.929V11.143h2.214Z" transform="translate(0 -9)" fill="#fff"/>
</svg>
