<svg id="youtube" xmlns="http://www.w3.org/2000/svg" width="12.584" height="14.908" viewBox="0 0 12.584 14.908">
  <g id="Group_7" data-name="Group 7">
    <g id="Group_6" data-name="Group 6" transform="translate(0)">
      <path id="Path_16" data-name="Path 16" d="M19.434,38.736a1.59,1.59,0,0,0-1.36-1.237,42.28,42.28,0,0,0-4.712-.174,42.293,42.293,0,0,0-4.713.174,1.589,1.589,0,0,0-1.36,1.237,13.474,13.474,0,0,0-.222,2.975,13.472,13.472,0,0,0,.219,2.975,1.589,1.589,0,0,0,1.36,1.237,42.283,42.283,0,0,0,4.712.174,42.252,42.252,0,0,0,4.713-.174,1.59,1.59,0,0,0,1.36-1.237,13.482,13.482,0,0,0,.22-2.975A13.492,13.492,0,0,0,19.434,38.736Zm-8.777.739H9.746v4.84H8.9v-4.84H8.005v-.793h2.651Zm2.3,4.84h-.761v-.458a1.219,1.219,0,0,1-.869.516.466.466,0,0,1-.49-.312,2.142,2.142,0,0,1-.067-.624V40.118h.76v3.09a2.368,2.368,0,0,0,.007.3c.018.118.076.178.178.178.153,0,.312-.118.481-.356V40.118h.761v4.2Zm2.889-1.26a3.353,3.353,0,0,1-.077.846.6.6,0,0,1-.607.472,1.036,1.036,0,0,1-.786-.464v.407h-.76V38.682h.76v1.84a1.03,1.03,0,0,1,.786-.455.6.6,0,0,1,.607.473,3.223,3.223,0,0,1,.077.844Zm2.87-.7H17.193V43.1c0,.388.127.582.388.582a.327.327,0,0,0,.34-.3,4.786,4.786,0,0,0,.017-.515h.776v.111c0,.245-.009.414-.016.49a1.084,1.084,0,0,1-.178.456,1.053,1.053,0,0,1-.92.455,1.089,1.089,0,0,1-.921-.43,1.626,1.626,0,0,1-.244-.987v-1.47a1.633,1.633,0,0,1,.235-.989,1.081,1.081,0,0,1,.911-.43,1.056,1.056,0,0,1,.9.43,1.65,1.65,0,0,1,.235.989v.869Z" transform="translate(-7.067 -31.189)" fill="#fff"/>
      <path id="Path_17" data-name="Path 17" d="M69.039,58.163q-.381,0-.382.582v.388h.76v-.388C69.417,58.357,69.29,58.163,69.039,58.163Z" transform="translate(-58.531 -48.601)" fill="#fff"/>
      <path id="Path_18" data-name="Path 18" d="M51.884,58.163a.545.545,0,0,0-.379.185v2.558a.543.543,0,0,0,.379.187c.219,0,.331-.187.331-.566V58.736C52.215,58.357,52.1,58.163,51.884,58.163Z" transform="translate(-44.199 -48.601)" fill="#fff"/>
      <path id="Path_19" data-name="Path 19" d="M53.533,13.12a1.235,1.235,0,0,0,.878-.521v.463h.769V8.82h-.769v3.242c-.17.241-.332.36-.485.36-.1,0-.163-.061-.18-.18a1.782,1.782,0,0,1-.009-.3V8.82H52.97v3.354a2.143,2.143,0,0,0,.068.631A.472.472,0,0,0,53.533,13.12Z" transform="translate(-45.423 -7.37)" fill="#fff"/>
      <path id="Path_20" data-name="Path 20" d="M18.425,3.386V5.692h.852V3.386L20.3,0H19.44l-.582,2.235L18.254,0h-.9c.18.528.367,1.058.546,1.586A14.02,14.02,0,0,1,18.425,3.386Z" transform="translate(-15.665)" fill="#fff"/>
      <path id="Path_21" data-name="Path 21" d="M36.448,12.859a1.048,1.048,0,0,0,.9-.434,1.659,1.659,0,0,0,.239-1V9.942a1.662,1.662,0,0,0-.239-1,1.14,1.14,0,0,0-1.791,0,1.648,1.648,0,0,0-.241,1v1.485a1.644,1.644,0,0,0,.241,1A1.048,1.048,0,0,0,36.448,12.859Zm-.367-3.071c0-.392.119-.588.367-.588s.366.2.366.588v1.784c0,.392-.119.589-.366.589s-.367-.2-.367-.589Z" transform="translate(-30.669 -7.109)" fill="#fff"/>
    </g>
  </g>
</svg>
