<svg id="linkedin" xmlns="http://www.w3.org/2000/svg" width="14.21" height="14.21" viewBox="0 0 14.21 14.21">
  <path id="Path_13" data-name="Path 13" d="M17.669,17.3h0V12.087c0-2.55-.549-4.513-3.529-4.513a3.094,3.094,0,0,0-2.787,1.532h-.041V7.812H8.489V17.3h2.943V12.6c0-1.237.234-2.433,1.766-2.433,1.509,0,1.532,1.412,1.532,2.512V17.3Z" transform="translate(-3.463 -3.09)" fill="#fff"/>
  <path id="Path_14" data-name="Path 14" d="M.4,7.977H3.342v9.487H.4Z" transform="translate(-0.162 -3.254)" fill="#fff"/>
  <path id="Path_15" data-name="Path 15" d="M1.706,0A1.714,1.714,0,1,0,3.413,1.706,1.707,1.707,0,0,0,1.706,0Z" fill="#fff"/>
</svg>
