<svg id="notification_1_" data-name="notification (1)" xmlns="http://www.w3.org/2000/svg" width="12.58" height="15.097" viewBox="0 0 12.58 15.097">
  <g id="Group_3" data-name="Group 3" transform="translate(0)">
    <g id="Group_2" data-name="Group 2">
      <path id="Path_5" data-name="Path 5" d="M55.211,12.743l-1.08-1.8a5.354,5.354,0,0,1-.762-2.753V6.61a4.412,4.412,0,0,0-3.145-4.221V1.259a1.258,1.258,0,1,0-2.516,0v1.13A4.412,4.412,0,0,0,44.562,6.61V8.188a5.358,5.358,0,0,1-.762,2.753l-1.08,1.8a.315.315,0,0,0,.269.477H54.941a.315.315,0,0,0,.27-.477Z" transform="translate(-42.675 0)" fill="#fff"/>
    </g>
  </g>
  <g id="Group_5" data-name="Group 5" transform="translate(4.319 13.845)">
    <g id="Group_4" data-name="Group 4">
      <path id="Path_6" data-name="Path 6" d="M188.815,469.333a2.177,2.177,0,0,0,3.942,0Z" transform="translate(-188.815 -469.333)" fill="#fff"/>
    </g>
  </g>
</svg>
