<svg xmlns="http://www.w3.org/2000/svg" xmlns:xlink="http://www.w3.org/1999/xlink" width="13" height="19" viewBox="0 0 13 19">
  <defs>
    <clipPath id="clip-path">
      <path id="ki-map-point" d="M6.5,19v0c-.072-.11-1.771-2.727-3.379-5.477-.3-.491-.584-.947-.835-1.349C.763,9.734,0,8.511,0,6.27A6.456,6.456,0,0,1,.519,3.8,6.223,6.223,0,0,1,1.885,1.774,6.409,6.409,0,0,1,3.965.443a7.005,7.005,0,0,1,5.07.063,6.409,6.409,0,0,1,2.08,1.33,6.217,6.217,0,0,1,1.365,2.027A5.248,5.248,0,0,1,13,6.334c0,2.134-.777,3.4-2.188,5.71-.279.457-.6.974-.933,1.542C8.221,16.287,6.571,18.889,6.5,19Zm0-16.467a3.856,3.856,0,0,0-3.9,3.8,3.856,3.856,0,0,0,3.9,3.8,3.855,3.855,0,0,0,3.9-3.8A3.855,3.855,0,0,0,6.5,2.533Z" transform="translate(0 0)" fill="none"/>
    </clipPath>
  </defs>
  <g id="Group_1952" data-name="Group 1952" clip-path="url(#clip-path)">
    <g id="_color" data-name="🎨 color" transform="translate(-4.315 -0.351)">
      <rect id="dark-blue-30" width="21.389" height="19.847" transform="translate(0)" fill="#00629b"/>
    </g>
  </g>
</svg>
