<svg xmlns="http://www.w3.org/2000/svg" width="14.335" height="11.647" viewBox="0 0 14.335 11.647">
  <g id="twitter" transform="translate(0 -48)">
    <g id="Group_14" data-name="Group 14" transform="translate(0 48)">
      <g id="Group_13" data-name="Group 13">
        <path id="Path_26" data-name="Path 26" d="M14.335,49.379a6.127,6.127,0,0,1-1.693.464,2.922,2.922,0,0,0,1.293-1.624,5.873,5.873,0,0,1-1.864.711,2.939,2.939,0,0,0-5.084,2.01,3.026,3.026,0,0,0,.068.67A8.318,8.318,0,0,1,1,48.536a2.94,2.94,0,0,0,.9,3.928A2.9,2.9,0,0,1,.573,52.1v.032a2.952,2.952,0,0,0,2.355,2.888,2.933,2.933,0,0,1-.771.1,2.6,2.6,0,0,1-.556-.05,2.967,2.967,0,0,0,2.746,2.047A5.905,5.905,0,0,1,.7,58.369a5.5,5.5,0,0,1-.7-.04,8.274,8.274,0,0,0,4.508,1.319,8.307,8.307,0,0,0,8.365-8.363c0-.13,0-.255-.011-.38A5.863,5.863,0,0,0,14.335,49.379Z" transform="translate(0 -48)" fill="#fff"/>
      </g>
    </g>
  </g>
</svg>
