<svg xmlns="http://www.w3.org/2000/svg" width="13.01" height="12" viewBox="0 0 13.01 12">
  <g id="printer" transform="translate(0 -9.633)">
    <path id="Path_153" data-name="Path 153" d="M12.092,12.406H10.635V10.026a.393.393,0,0,0-.393-.393H2.768a.393.393,0,0,0-.393.393v2.379H.918A.919.919,0,0,0,0,13.324V18.37a.919.919,0,0,0,.918.918H2.375v1.951a.393.393,0,0,0,.393.393h7.473a.393.393,0,0,0,.393-.393V19.288h1.457a.919.919,0,0,0,.918-.918V13.324A.919.919,0,0,0,12.092,12.406ZM3.162,10.42H9.848v1.986H3.162ZM9.848,20.846H3.162v-3.9H9.848Zm2.375-2.476a.133.133,0,0,1-.131.131H10.635V16.55a.393.393,0,0,0-.393-.393H2.768a.393.393,0,0,0-.393.393V18.5H.918a.133.133,0,0,1-.131-.131V13.324a.133.133,0,0,1,.131-.131H12.092a.133.133,0,0,1,.131.131V18.37Z" fill="#4b91ff"/>
    <circle id="Ellipse_49" data-name="Ellipse 49" cx="0.56" cy="0.56" r="0.56" transform="translate(9.682 14.115)" fill="#4b91ff"/>
    <path id="Path_154" data-name="Path 154" d="M86.38,163.822H82.8a.393.393,0,1,0,0,.787H86.38a.393.393,0,1,0,0-.787Z" transform="translate(-78.085 -146.102)" fill="#4b91ff"/>
    <path id="Path_155" data-name="Path 155" d="M86.38,193.623H82.8a.393.393,0,1,0,0,.787H86.38a.393.393,0,1,0,0-.787Z" transform="translate(-78.085 -174.34)" fill="#4b91ff"/>
  </g>
</svg>
