<svg xmlns="http://www.w3.org/2000/svg" width="50" height="50" viewBox="0 0 50 50">
  <g id="idea" transform="translate(-8 -8)">
    <path id="Path_136" data-name="Path 136" d="M55.177,15.258H42.371a9.679,9.679,0,0,0-18.742,0H10.823A2.826,2.826,0,0,0,8,18.081V47.92a2.826,2.826,0,0,0,2.823,2.823H26.4l-.538,3.226H22.516a.806.806,0,0,0-.806.806v1.613H18.484a.806.806,0,1,0,0,1.613H47.516a.806.806,0,1,0,0-1.613H44.29V54.775a.806.806,0,0,0-.806-.806H40.135L39.6,50.742H55.177A2.826,2.826,0,0,0,58,47.92V18.081A2.826,2.826,0,0,0,55.177,15.258ZM33,9.613a8.066,8.066,0,0,1,3.665,15.25.8.8,0,0,0-.44.718v2.581h-.806V20.1a.806.806,0,0,0-1.613,0v8.065H32.194V20.1a.806.806,0,1,0-1.613,0v8.065h-.806V25.581a.8.8,0,0,0-.44-.718A8.066,8.066,0,0,1,33,9.613ZM30.984,35.42a1.211,1.211,0,0,1-1.21-1.21V32.194h6.452V34.21a1.211,1.211,0,0,1-1.21,1.21Zm2.823,1.613a.806.806,0,1,1-1.613,0Zm-5.645-6.452v-.806h9.677v.806Zm14.516,25v.806H23.323v-.806ZM27.5,53.968l.538-3.226h9.923l.538,3.226ZM56.387,47.92a1.211,1.211,0,0,1-1.21,1.21H10.823a1.211,1.211,0,0,1-1.21-1.21V45.9H56.387Zm0-3.629H9.613V18.081a1.211,1.211,0,0,1,1.21-1.21H23.357c-.022.266-.034.535-.034.806a9.637,9.637,0,0,0,4.839,8.382v2.1h-.806a.806.806,0,0,0-.806.806v2.419a.806.806,0,0,0,.806.806h.806V34.21A2.827,2.827,0,0,0,30.581,37v.029a2.419,2.419,0,1,0,4.839,0V37a2.827,2.827,0,0,0,2.419-2.793V32.194h.806a.806.806,0,0,0,.806-.806V28.968a.806.806,0,0,0-.806-.806h-.806v-2.1a9.637,9.637,0,0,0,4.839-8.382c0-.271-.012-.54-.034-.806H55.177a1.211,1.211,0,0,1,1.21,1.21Z" fill="#00173b"/>
    <path id="Path_137" data-name="Path 137" d="M45.645,392H40.806a.806.806,0,1,0,0,1.613h4.839a.806.806,0,1,0,0-1.613Z" transform="translate(-28.774 -345.29)" fill="#78be21"/>
    <path id="Path_138" data-name="Path 138" d="M113.613,392h-.806a.806.806,0,1,0,0,1.613h.806a.806.806,0,1,0,0-1.613Z" transform="translate(-93.516 -345.29)" fill="#bbde90"/>
    <path id="Path_139" data-name="Path 139" d="M216.806,97.613h6.452a.806.806,0,0,0,0-1.613h-6.452a.806.806,0,1,0,0,1.613Z" transform="translate(-187.032 -79.129)" fill="#ffbd41"/>
  </g>
</svg>
