<svg id="web-site" xmlns="http://www.w3.org/2000/svg" width="60" height="52.943" viewBox="0 0 60 52.943">
  <path id="Path_50" data-name="Path 50" d="M53.188,52.943H6.812A6.82,6.82,0,0,1,0,46.131V6.812A6.82,6.82,0,0,1,6.812,0H53.188A6.82,6.82,0,0,1,60,6.812v39.32A6.82,6.82,0,0,1,53.188,52.943ZM6.812,2.029A4.788,4.788,0,0,0,2.029,6.812v39.32a4.788,4.788,0,0,0,4.783,4.783H53.188a4.788,4.788,0,0,0,4.783-4.783V6.812a4.788,4.788,0,0,0-4.783-4.783Zm0,0" fill="#002d72"/>
  <path id="Path_51" data-name="Path 51" d="M250.818,246.467H234.841a1.017,1.017,0,1,1,0-2.034h15.977a1.017,1.017,0,1,1,0,2.034Zm0,0" transform="translate(-199.996 -209.012)" fill="#002d72"/>
  <path id="Path_52" data-name="Path 52" d="M250.818,297.077H234.841a1.017,1.017,0,1,1,0-2.034h15.977a1.017,1.017,0,0,1,0,2.034Zm0,0" transform="translate(-199.996 -252.306)" fill="#002d72"/>
  <path id="Path_53" data-name="Path 53" d="M250.818,145.248H234.841a1.017,1.017,0,1,1,0-2.034h15.977a1.017,1.017,0,1,1,0,2.034Zm0,0" transform="translate(-199.996 -122.461)" fill="#002d72"/>
  <path id="Path_54" data-name="Path 54" d="M250.818,195.858H234.841a1.017,1.017,0,1,1,0-2.034h15.977a1.017,1.017,0,1,1,0,2.034Zm0,0" transform="translate(-199.996 -165.736)" fill="#002d72"/>
  <path id="Path_55" data-name="Path 55" d="M58.986,81.764H1.014a1.017,1.017,0,0,1,0-2.034H58.986a1.017,1.017,0,0,1,0,2.034Zm0,0" transform="translate(0 -68.176)" fill="#002d72"/>
  <path id="Path_56" data-name="Path 56" d="M82.293,31.546a3.164,3.164,0,1,1,3.164-3.164A3.168,3.168,0,0,1,82.293,31.546Zm0-4.294a1.13,1.13,0,1,0,1.13,1.13A1.132,1.132,0,0,0,82.293,27.252Zm0,0" transform="translate(-67.664 -21.556)" fill="#f5961b"/>
  <path id="Path_57" data-name="Path 57" d="M31.859,31.546a3.164,3.164,0,1,1,3.164-3.164A3.167,3.167,0,0,1,31.859,31.546Zm0-4.294a1.13,1.13,0,1,0,1.131,1.13A1.132,1.132,0,0,0,31.859,27.252Zm0,0" transform="translate(-24.527 -21.556)" fill="#ff5959"/>
  <path id="Path_58" data-name="Path 58" d="M132.73,31.546a3.164,3.164,0,1,1,3.164-3.164A3.167,3.167,0,0,1,132.73,31.546Zm0-4.294a1.13,1.13,0,1,0,1.131,1.13A1.131,1.131,0,0,0,132.73,27.252Zm0,0" transform="translate(-110.794 -21.556)" fill="#78be21"/>
  <path id="Path_59" data-name="Path 59" d="M73.464,167.3H55.017A1.017,1.017,0,0,1,54,166.285V144.232a1.017,1.017,0,0,1,1.017-1.017H73.464a1.017,1.017,0,0,1,1.017,1.017v22.054A1.017,1.017,0,0,1,73.464,167.3Zm-17.431-2.034H72.447v-20.02H56.034Zm0,0" transform="translate(-46.156 -122.498)" fill="#002d72"/>
</svg>
