<svg id="online-course" xmlns="http://www.w3.org/2000/svg" width="60" height="58" viewBox="0 0 60 58">
  <path id="Path_36" data-name="Path 36" d="M30,26a1.006,1.006,0,0,1-.426-.095l-17-8a1,1,0,0,1,0-1.81l17-8a1,1,0,0,1,.852,0l17,8a1,1,0,0,1,0,1.81l-17,8A1.006,1.006,0,0,1,30,26ZM15.349,17,30,23.9,44.651,17,30,10.1Z" fill="#2960b5"/>
  <path id="Path_37" data-name="Path 37" d="M30,34a1,1,0,0,1-.447-.1l-12-6A1,1,0,0,1,17,27V19.353a1,1,0,0,1,1.425-.905L30,23.9l11.574-5.447A1,1,0,0,1,43,19.353V27a1,1,0,0,1-.553.9l-12,6A1,1,0,0,1,30,34ZM19,26.382l11,5.5,11-5.5V20.929L30.426,25.905a1,1,0,0,1-.852,0L19,20.929Z" fill="#2960b5"/>
  <path id="Path_38" data-name="Path 38" d="M47,18H30a1,1,0,0,1,0-2H47a1,1,0,0,1,0,2Z" fill="#002d72"/>
  <path id="Path_39" data-name="Path 39" d="M47,27a1,1,0,0,1-1-1V17a1,1,0,0,1,2,0v9A1,1,0,0,1,47,27Z" fill="#002d72"/>
  <path id="Path_40" data-name="Path 40" d="M30,20a1,1,0,0,1-1-1V15a1,1,0,0,1,2,0v4A1,1,0,0,1,30,20Z" fill="#002d72"/>
  <path id="Path_41" data-name="Path 41" d="M45,30a1,1,0,0,1-.831-1.555l2-3a1,1,0,0,1,1.664,1.11l-2,3A1,1,0,0,1,45,30Z" fill="#002d72"/>
  <path id="Path_42" data-name="Path 42" d="M49,30a1,1,0,0,1-.833-.445l-2-3a1,1,0,0,1,1.664-1.11l2,3A1,1,0,0,1,49,30Z" fill="#002d72"/>
  <path id="Path_43" data-name="Path 43" d="M30,29a1,1,0,0,1-1-1V25a1,1,0,0,1,2,0v3A1,1,0,0,1,30,29Z" fill="#2960b5"/>
  <path id="Path_44" data-name="Path 44" d="M59,38H1a1,1,0,0,1-1-1V4A4.006,4.006,0,0,1,4,0H56a4.006,4.006,0,0,1,4,4V37A1,1,0,0,1,59,38ZM2,36H58V4a2,2,0,0,0-2-2H4A2,2,0,0,0,2,4Z" fill="#002d72"/>
  <path id="Path_45" data-name="Path 45" d="M56,46H4a4.006,4.006,0,0,1-4-4V37a1,1,0,0,1,1-1H59a1,1,0,0,1,1,1v5A4.006,4.006,0,0,1,56,46ZM2,38v4a2,2,0,0,0,2,2H56a2,2,0,0,0,2-2V38Z" fill="#002d72"/>
  <path id="Path_46" data-name="Path 46" d="M33,42H27a1,1,0,0,1,0-2h6a1,1,0,0,1,0,2Z" fill="#002d72"/>
  <path id="Path_47" data-name="Path 47" d="M55,38H5a1,1,0,0,1-1-1V5A1,1,0,0,1,5,4H55a1,1,0,0,1,1,1V37A1,1,0,0,1,55,38ZM6,36H54V6H6Z" fill="#002d72"/>
  <path id="Path_48" data-name="Path 48" d="M43,58H17a3,3,0,0,1,0-6H43a3,3,0,0,1,0,6ZM17,54a1,1,0,0,0,0,2H43a1,1,0,0,0,0-2Z" fill="#002d72"/>
  <path id="Path_49" data-name="Path 49" d="M41,54H19a1,1,0,0,1,0-2c3.318,0,5-2.355,5-7a1,1,0,0,1,1-1H35a1,1,0,0,1,1,1c0,4.645,1.682,7,5,7a1,1,0,0,1,0,2ZM23.871,52H36.13a9.569,9.569,0,0,1-2.1-6H25.973A9.575,9.575,0,0,1,23.871,52Z" fill="#002d72"/>
</svg>
