<svg xmlns="http://www.w3.org/2000/svg" width="53.345" height="50" viewBox="0 0 53.345 50">
  <g id="challenge" transform="translate(0 -15.998)">
    <path id="Path_81" data-name="Path 81" d="M394.8,235.543a.784.784,0,0,0-.473,1,16.148,16.148,0,0,1-.606,12.35.784.784,0,1,0,1.416.673,17.715,17.715,0,0,0,.665-13.553A.784.784,0,0,0,394.8,235.543Z" transform="translate(-352.495 -196.554)" fill="#002d72"/>
    <path id="Path_82" data-name="Path 82" d="M117.766,155.773a.784.784,0,0,0-1.1.156,16.254,16.254,0,0,1-5.568,4.686,15.927,15.927,0,0,1-7.313,1.753,16.1,16.1,0,1,1,5.358-31.291.784.784,0,0,0,.522-1.479,17.671,17.671,0,1,0,2.147,32.413,17.831,17.831,0,0,0,6.108-5.141A.784.784,0,0,0,117.766,155.773Z" transform="translate(-77.115 -100.827)" fill="#002d72"/>
    <path id="Path_83" data-name="Path 83" d="M170.262,127.232l-2.876-1.161-1.172-2.871a1.506,1.506,0,0,0-2.462-.493l-3.1,3.117a1.5,1.5,0,0,0-.327,1.632l1.333,3.263-.878.883a11.92,11.92,0,0,0-15.115-.46.784.784,0,1,0,.958,1.242,10.353,10.353,0,0,1,13.049.332l-2.909,2.925a6.272,6.272,0,1,0,1.112,1.105l2.909-2.925a10.361,10.361,0,1,1-16.315.811.784.784,0,0,0-1.282-.9,11.936,11.936,0,1,0,18.7-1.021l.879-.883,3.264,1.317a1.5,1.5,0,0,0,1.631-.334l3.1-3.117a1.506,1.506,0,0,0-.5-2.46ZM164.8,123.88l1.066,2.61-1.477,1.483h0l-.056.056-1.477,1.483-1.066-2.61ZM157.632,140.6a4.7,4.7,0,1,1-1.991-3.832l-3.262,3.279a.784.784,0,0,0,1.112,1.106l3.263-3.28A4.663,4.663,0,0,1,157.632,140.6Zm8.947-8.923-2.613-1.055,1.514-1.522,1.495-1.5,2.614,1.055Z" transform="translate(-126.27 -95.158)" fill="#f5961b"/>
    <path id="Path_84" data-name="Path 84" d="M49.154,20.454H45.425V18.444a2.446,2.446,0,0,0-4.892,0v2.01H37.272v-2.01a2.446,2.446,0,1,0-4.892,0v2.01H29.119v-2.01a2.446,2.446,0,0,0-4.892,0v2.01H20.965v-2.01a2.446,2.446,0,0,0-4.892,0v2.01H12.812v-2.01a2.446,2.446,0,0,0-4.892,0v2.01H4.191A4.2,4.2,0,0,0,0,24.644V61.807A4.2,4.2,0,0,0,4.191,66H49.154a4.2,4.2,0,0,0,4.191-4.19V24.644A4.2,4.2,0,0,0,49.154,20.454ZM42.1,18.444a.878.878,0,1,1,1.756,0v4.314a.878.878,0,0,1-1.756,0Zm-8.153,0a.878.878,0,1,1,1.756,0v4.314a.878.878,0,1,1-1.756,0Zm-8.154,0a.878.878,0,1,1,1.756,0v4.314a.878.878,0,0,1-1.756,0Zm-8.153,0a.878.878,0,0,1,1.756,0v4.314a.878.878,0,0,1-1.756,0Zm-8.154,0a.878.878,0,0,1,1.756,0v4.314a.878.878,0,0,1-1.756,0ZM49.154,64.43H4.191a2.626,2.626,0,0,1-2.623-2.623V30.552H14.224a.784.784,0,1,0,0-1.568H1.568v-4.34a2.626,2.626,0,0,1,2.623-2.623H7.919v.737a2.446,2.446,0,1,0,4.892,0v-.737h3.261v.737a2.446,2.446,0,0,0,4.892,0v-.737h3.261v.737a2.446,2.446,0,1,0,4.892,0v-.737H32.38v.737a2.446,2.446,0,1,0,4.892,0v-.737h3.261v.737a2.446,2.446,0,1,0,4.892,0v-.737h3.729a2.626,2.626,0,0,1,2.623,2.623v4.34H44.151a.784.784,0,1,0,0,1.568h7.626V61.808a2.625,2.625,0,0,1-2.622,2.622Z" fill="#002d72"/>
  </g>
</svg>
