<svg id="Group_48" data-name="Group 48" xmlns="http://www.w3.org/2000/svg" width="11.669" height="10" viewBox="0 0 11.669 10">
  <g id="Group_47" data-name="Group 47">
    <path id="Path_70" data-name="Path 70" d="M195.461,73l-.035-.035a3.286,3.286,0,0,0-4.6,0l-.272.269-.272-.269a3.286,3.286,0,0,0-4.6,0,3.212,3.212,0,0,0-.035,4.543l.035.035,4.29,4.24a.833.833,0,0,0,1.172,0l4.29-4.24A3.212,3.212,0,0,0,195.461,73Zm-1.186,3.336-.021.021-3.7,3.66-3.7-3.66a1.546,1.546,0,0,1-.021-2.186l.021-.021a1.614,1.614,0,0,1,2.26,0l.858.848a.834.834,0,0,0,1.172,0l.858-.848a1.615,1.615,0,0,1,2.26,0A1.546,1.546,0,0,1,194.276,76.339Z" transform="translate(-184.716 -72.027)" fill="#4b91ff"/>
  </g>
</svg>
