<svg id="Group_8812" data-name="Group 8812" xmlns="http://www.w3.org/2000/svg" xmlns:xlink="http://www.w3.org/1999/xlink" width="150" height="43" viewBox="0 0 150 43">
  <defs>
    <clipPath id="clip-path">
      <rect id="Rectangle_421" data-name="Rectangle 421" width="150" height="43" fill="none"/>
    </clipPath>
  </defs>
  <g id="Group_865" data-name="Group 865" clip-path="url(#clip-path)">
    <path id="Path_641" data-name="Path 641" d="M358.75,347.31q2.336,2,7.012,2,4.538,0,7.013-1.929a7.134,7.134,0,0,0,2.474-5.792,6.432,6.432,0,0,0-.756-3.172,5.55,5.55,0,0,0-2.314-2.217,10,10,0,0,0-1.8-.7c-.844-.258-5.037-1.405-5.461-1.519-2.337-.571-3.82-1.352-3.831-2.738.121-2.68,2.613-2.9,3.988-2.9a5.644,5.644,0,0,1,3.369.9,3.11,3.11,0,0,1,1.314,2.623h4.667a7.672,7.672,0,0,0-2.475-5.588,9.7,9.7,0,0,0-6.463-1.931q-4.47,0-6.806,1.861a6.516,6.516,0,0,0-2.337,5.309,6.1,6.1,0,0,0,2.612,5.378,16.289,16.289,0,0,0,4.675,1.586l1.858.406c3.224.788,5.074,1.786,5.015,3.386a2.59,2.59,0,0,1-1.1,2.206,5.92,5.92,0,0,1-3.23.758,6.49,6.49,0,0,1-3.782-.965,3.787,3.787,0,0,1-1.581-2.9H356a7.631,7.631,0,0,0,2.75,5.93" transform="translate(-356 -324.35)" fill="#fff"/>
    <path id="Path_642" data-name="Path 642" d="M385.568,338.919c0-1.8-.329-5.613-4.006-5.613-3.492,0-3.869,3.719-3.869,5.613,0,4.795,2.718,5.4,4.007,5.4,3.339,0,3.868-3.553,3.868-5.4M377.693,352.5a2.334,2.334,0,0,1-2.349,2.356h-2.349V337.6c.273-4.591,1.937-8.249,8.889-8.5a8.441,8.441,0,0,1,6.479,2.75,10.812,10.812,0,0,1,1.974,6.858,11.3,11.3,0,0,1-2.073,7.067,6.472,6.472,0,0,1-5.32,2.634,8.465,8.465,0,0,1-5.254-1.611c0,.158,0,5.7,0,5.7" transform="translate(-352.763 -323.428)" fill="#fff"/>
    <path id="Path_643" data-name="Path 643" d="M397.075,344.262c-1.19-.061-3.458-.295-3.667-4.274h11.913c0-.121,0-1.432,0-1.434a10.807,10.807,0,0,0-2.2-6.911,8.226,8.226,0,0,0-6.394-2.482,7.651,7.651,0,0,0-6.118,2.55,10.25,10.25,0,0,0-2.131,6.9q0,4.621,2.2,7.1a7.646,7.646,0,0,0,6.117,2.55,8.732,8.732,0,0,0,5.363-1.586,7.545,7.545,0,0,0,2.894-4.419h-4.139c-.609,1.732-2.167,2.089-3.842,2m-.206-11.1c2.954-.039,3.413,2.482,3.506,3.723h-7.012s-.06-3.657,3.506-3.723" transform="translate(-349.813 -323.417)" fill="#fff"/>
    <path id="Path_644" data-name="Path 644" d="M415.59,342.263h4.518a7.9,7.9,0,0,1-8.054,6c-6.825,0-8.506-5.495-8.506-9.1s.639-9.776,8.24-9.993a7.79,7.79,0,0,1,8.181,6h-4.811s-.467-2.063-3.331-2-3.612,2.763-3.612,5.326.636,5.773,3.815,5.773c3.024.092,3.29-1.547,3.558-2" transform="translate(-346.943 -323.417)" fill="#fff"/>
    <path id="Path_645" data-name="Path 645" d="M423.115,335.284h2.826v-4.833h-2.819v-3.1A2.21,2.21,0,0,0,420.852,325h-2.474v20.271c0,2.115.817,3.379,2.587,3.379h2.151Z" transform="translate(-344.118 -324.223)" fill="#fff"/>
    <path id="Path_646" data-name="Path 646" d="M429.731,347.821v-9.445a4.146,4.146,0,0,1,.962-3.034,4.015,4.015,0,0,1,2.956-.965h1.582v-4.9a16.608,16.608,0,0,0-4.3.484,9.024,9.024,0,0,0-3.059,1.516,7.447,7.447,0,0,0-2.165,2.93,11.384,11.384,0,0,0-.792,4.517v8.894Z" transform="translate(-342.873 -323.355)" fill="#fff"/>
    <path id="Path_647" data-name="Path 647" d="M434.724,329.5h4.813v11.721A2.969,2.969,0,0,0,442.7,344.4a3.011,3.011,0,0,0,3.229-3.037v-9.581s.163-2.275,2.25-2.275h2.5s0,10.783,0,10.886c-.033.593.631,7.8-7.974,7.774-8.525,0-7.92-7.294-7.975-7.725Z" transform="translate(-341.005 -323.35)" fill="#fff"/>
    <path id="Path_648" data-name="Path 648" d="M465.283,347.952h-4.767v-11.78a2.915,2.915,0,0,0-3.249-3.187,2.987,2.987,0,0,0-3.176,3.187v11.78h-4.838v-10.81c0-3.14.93-5.059,2.454-6.305a9.016,9.016,0,0,1,5.423-1.732,13.965,13.965,0,0,1,3.11.346A6.543,6.543,0,0,1,463,330.836a6.116,6.116,0,0,1,2.452-1.282,11.584,11.584,0,0,1,2.937-.45c5.9-.031,8.267,2.678,8.463,3.547v15.3h-2.731a2.316,2.316,0,0,1-2.348-2.356v-9.424c.012-1.336-.455-3.187-3.249-3.187a2.976,2.976,0,0,0-3.246,3.187Z" transform="translate(-338.238 -323.428)" fill="#fff"/>
    <path id="Path_649" data-name="Path 649" d="M473.565,332.068v15.286l10.042-7.641Z" transform="translate(-333.607 -322.853)" fill="#0099d8"/>
    <path id="Path_650" data-name="Path 650" d="M413.828,351.311a3.068,3.068,0,0,1,.55,1.836,2.684,2.684,0,0,1-.555,1.771,2.869,2.869,0,0,1-.915.685,2.68,2.68,0,0,1,1.386,1.061,3.187,3.187,0,0,1,.467,1.763,3.528,3.528,0,0,1-.533,1.917,3.307,3.307,0,0,1-2.2,1.551,8.294,8.294,0,0,1-1.7.164h-5.4V350.029h5.8a3.675,3.675,0,0,1,3.11,1.282m-6.513.807v2.653h2.915a2.408,2.408,0,0,0,1.268-.3,1.139,1.139,0,0,0,.487-1.058,1.076,1.076,0,0,0-.644-1.109,4.492,4.492,0,0,0-1.418-.189Zm0,4.644v3.208h2.912a2.828,2.828,0,0,0,1.214-.212,1.516,1.516,0,0,0,.789-1.5,1.292,1.292,0,0,0-.764-1.289,3.045,3.045,0,0,0-1.2-.2Z" transform="translate(-346.681 -319.37)" fill="#fff"/>
    <path id="Path_651" data-name="Path 651" d="M414.483,350.03h2.548v7.388a4.191,4.191,0,0,0,.292,1.811,2.433,2.433,0,0,0,3.949,0,4.19,4.19,0,0,0,.292-1.811V350.03h2.548v7.394a6.205,6.205,0,0,1-.594,2.987q-1.1,1.959-4.215,1.959t-4.225-1.959a6.221,6.221,0,0,1-.593-2.987Z" transform="translate(-344.86 -319.369)" fill="#fff"/>
    <path id="Path_652" data-name="Path 652" d="M426.123,358.4a2.438,2.438,0,0,0,.457,1.233,2.656,2.656,0,0,0,2.136.743,4.557,4.557,0,0,0,1.47-.2,1.4,1.4,0,0,0,1.073-1.4,1.027,1.027,0,0,0-.525-.922,5.7,5.7,0,0,0-1.665-.564l-1.3-.285a8.036,8.036,0,0,1-2.631-.923,2.934,2.934,0,0,1-1.212-2.6,3.458,3.458,0,0,1,1.186-2.685,5.046,5.046,0,0,1,3.484-1.07,5.34,5.34,0,0,1,3.275,1.008,3.592,3.592,0,0,1,1.422,2.926h-2.41a1.718,1.718,0,0,0-.968-1.543,3.3,3.3,0,0,0-1.493-.3,2.846,2.846,0,0,0-1.586.392,1.243,1.243,0,0,0-.592,1.094,1.029,1.029,0,0,0,.583.962,7.17,7.17,0,0,0,1.594.5l2.1.5a5.351,5.351,0,0,1,2.075.873,2.947,2.947,0,0,1,1.073,2.457,3.457,3.457,0,0,1-1.271,2.739,5.355,5.355,0,0,1-3.59,1.089,5.853,5.853,0,0,1-3.726-1.073,3.555,3.555,0,0,1-1.356-2.951Z" transform="translate(-343.099 -319.426)" fill="#fff"/>
    <rect id="Rectangle_420" data-name="Rectangle 420" width="2.49" height="12.03" transform="translate(91.895 30.661)" fill="#fff"/>
    <path id="Path_653" data-name="Path 653" d="M436.933,350.03h2.627l4.762,8.389V350.03h2.336v12.03h-2.506l-4.883-8.536v8.536h-2.336Z" transform="translate(-340.584 -319.369)" fill="#fff"/>
    <path id="Path_654" data-name="Path 654" d="M455.6,352.16h-6.348v2.555h5.827V356.8h-5.827V359.9h6.64v2.163h-9.089V350.03h8.8Z" transform="translate(-338.704 -319.369)" fill="#fff"/>
    <path id="Path_655" data-name="Path 655" d="M457.553,358.4a2.448,2.448,0,0,0,.457,1.233,2.656,2.656,0,0,0,2.136.743,4.557,4.557,0,0,0,1.47-.2,1.4,1.4,0,0,0,1.071-1.4,1.026,1.026,0,0,0-.524-.922,5.7,5.7,0,0,0-1.667-.564l-1.3-.285a8.047,8.047,0,0,1-2.631-.923,2.934,2.934,0,0,1-1.213-2.6,3.459,3.459,0,0,1,1.187-2.685,5.046,5.046,0,0,1,3.484-1.07,5.34,5.34,0,0,1,3.275,1.008,3.589,3.589,0,0,1,1.421,2.926h-2.409a1.718,1.718,0,0,0-.968-1.543,3.3,3.3,0,0,0-1.493-.3,2.846,2.846,0,0,0-1.586.392,1.242,1.242,0,0,0-.593,1.094,1.03,1.03,0,0,0,.585.962,7.169,7.169,0,0,0,1.594.5l2.1.5a5.35,5.35,0,0,1,2.075.873,2.947,2.947,0,0,1,1.073,2.457,3.457,3.457,0,0,1-1.271,2.739,5.351,5.351,0,0,1-3.59,1.089,5.853,5.853,0,0,1-3.726-1.073,3.556,3.556,0,0,1-1.357-2.951Z" transform="translate(-337.112 -319.426)" fill="#fff"/>
    <path id="Path_656" data-name="Path 656" d="M466.642,358.4a2.437,2.437,0,0,0,.457,1.233,2.653,2.653,0,0,0,2.134.743,4.56,4.56,0,0,0,1.471-.2,1.4,1.4,0,0,0,1.071-1.4,1.027,1.027,0,0,0-.525-.922,5.678,5.678,0,0,0-1.666-.564l-1.3-.285a8.036,8.036,0,0,1-2.631-.923,2.934,2.934,0,0,1-1.213-2.6,3.462,3.462,0,0,1,1.186-2.685,5.051,5.051,0,0,1,3.486-1.07,5.34,5.34,0,0,1,3.275,1.008,3.591,3.591,0,0,1,1.42,2.926H471.4a1.722,1.722,0,0,0-.968-1.543,3.3,3.3,0,0,0-1.493-.3,2.843,2.843,0,0,0-1.586.392,1.242,1.242,0,0,0-.593,1.094,1.03,1.03,0,0,0,.585.962,7.171,7.171,0,0,0,1.594.5l2.1.5a5.35,5.35,0,0,1,2.075.873,2.95,2.95,0,0,1,1.073,2.457,3.457,3.457,0,0,1-1.271,2.739,5.356,5.356,0,0,1-3.59,1.089,5.85,5.85,0,0,1-3.726-1.073,3.556,3.556,0,0,1-1.357-2.951Z" transform="translate(-335.381 -319.426)" fill="#fff"/>
  </g>
</svg>
