<svg id="Group_3959" data-name="Group 3959" xmlns="http://www.w3.org/2000/svg" xmlns:xlink="http://www.w3.org/1999/xlink" width="193.903" height="55.5" viewBox="0 0 193.903 55.5">
  <defs>
    <clipPath id="clip-path">
      <rect id="Rectangle_421" data-name="Rectangle 421" width="193.903" height="55.5" fill="#fff"/>
    </clipPath>
  </defs>
  <g id="Group_865" data-name="Group 865" clip-path="url(#clip-path)">
    <path id="Path_641" data-name="Path 641" d="M359.555,353.984q3.02,2.582,9.064,2.58,5.866,0,9.066-2.49a9.2,9.2,0,0,0,3.2-7.476,8.29,8.29,0,0,0-.977-4.094,7.169,7.169,0,0,0-2.992-2.862,12.944,12.944,0,0,0-2.327-.9c-1.091-.333-6.511-1.814-7.059-1.96-3.021-.737-4.938-1.744-4.952-3.534.157-3.46,3.378-3.737,5.155-3.737a7.3,7.3,0,0,1,4.355,1.157,4.011,4.011,0,0,1,1.7,3.386h6.032a9.9,9.9,0,0,0-3.2-7.212q-2.934-2.492-8.355-2.492-5.778,0-8.8,2.4a8.4,8.4,0,0,0-3.021,6.853c.009,3.734,1.777,5.934,3.376,6.941a21.081,21.081,0,0,0,6.043,2.046l2.4.524c4.167,1.017,6.559,2.305,6.483,4.37a3.342,3.342,0,0,1-1.422,2.848,7.661,7.661,0,0,1-4.175.979,8.4,8.4,0,0,1-4.889-1.245,4.886,4.886,0,0,1-2.044-3.738H356q.268,5.071,3.555,7.654" transform="translate(-356 -324.35)" fill="#001b33"/>
    <path id="Path_642" data-name="Path 642" d="M389.247,341.773c0-2.325-.425-7.244-5.178-7.244-4.514,0-5,4.8-5,7.244,0,6.189,3.513,6.976,5.18,6.976,4.317,0,5-4.586,5-6.976M379.068,359.3a3.015,3.015,0,0,1-3.036,3.04h-3.036V340.073c.352-5.925,2.5-10.647,11.491-10.969a10.919,10.919,0,0,1,8.375,3.549c1.787,2.325,2.551,5.215,2.551,8.852a14.569,14.569,0,0,1-2.679,9.121,8.37,8.37,0,0,1-6.877,3.4,10.953,10.953,0,0,1-6.791-2.079c0,.2,0,7.355,0,7.355" transform="translate(-346.841 -321.778)" fill="#001b33"/>
    <path id="Path_643" data-name="Path 643" d="M399.59,348.651c-1.539-.079-4.471-.381-4.74-5.517l15.4,0c0-.156,0-1.848,0-1.851-.106-3.87-1.033-6.756-2.844-8.919q-2.934-3.2-8.266-3.2a9.9,9.9,0,0,0-7.909,3.292q-2.756,3.2-2.755,8.9,0,5.964,2.844,9.168a9.892,9.892,0,0,0,7.907,3.292,11.3,11.3,0,0,0,6.933-2.047,9.738,9.738,0,0,0,3.741-5.7l-5.351,0c-.788,2.236-2.8,2.7-4.966,2.587m-.266-14.328c3.818-.051,4.412,3.2,4.532,4.8h-9.064s-.077-4.72,4.532-4.8" transform="translate(-338.495 -321.747)" fill="#001b33"/>
    <path id="Path_644" data-name="Path 644" d="M419.114,346.072h5.84a10.208,10.208,0,0,1-10.411,7.741c-8.823,0-11-7.092-11-11.75s.826-12.618,10.652-12.9c9.08-.134,10.575,7.742,10.575,7.742h-6.219s-.6-2.663-4.306-2.58-4.669,3.566-4.669,6.875.822,7.451,4.932,7.451c3.909.119,4.254-2,4.6-2.58" transform="translate(-330.376 -321.747)" fill="#001b33"/>
    <path id="Path_645" data-name="Path 645" d="M424.5,338.272h3.653v-6.238h-3.644v-4A2.854,2.854,0,0,0,421.576,325h-3.2v26.163c0,2.729,1.056,4.361,3.344,4.361H424.5Z" transform="translate(-322.384 -323.996)" fill="#001b33"/>
    <path id="Path_646" data-name="Path 646" d="M431.14,353.152V340.961a5.346,5.346,0,0,1,1.243-3.916A5.2,5.2,0,0,1,436.2,335.8h2.045v-6.32a21.5,21.5,0,0,0-5.554.624,11.671,11.671,0,0,0-3.955,1.957,9.615,9.615,0,0,0-2.8,3.782,14.673,14.673,0,0,0-1.023,5.83v11.479Z" transform="translate(-318.859 -321.575)" fill="#001b33"/>
    <path id="Path_647" data-name="Path 647" d="M434.724,329.5h6.222v15.128a3.833,3.833,0,0,0,4.087,4.095,3.888,3.888,0,0,0,4.174-3.92V332.441s.211-2.936,2.908-2.936h3.227s0,13.917,0,14.051c-.043.766.816,10.071-10.308,10.034-11.02,0-10.238-9.414-10.309-9.97Z" transform="translate(-313.575 -321.561)" fill="#001b33"/>
    <path id="Path_648" data-name="Path 648" d="M469.974,353.431h-6.162v-15.2c0-1.752-.722-4.113-4.2-4.113a3.857,3.857,0,0,0-4.106,4.113v15.2h-6.254V339.478c0-4.053,1.2-6.529,3.172-8.138a11.667,11.667,0,0,1,7.01-2.236,18.077,18.077,0,0,1,4.02.447,8.463,8.463,0,0,1,3.573,1.789,7.91,7.91,0,0,1,3.17-1.655,14.992,14.992,0,0,1,3.8-.581c7.625-.04,10.686,3.457,10.94,4.578l0,19.748h-3.53a2.992,2.992,0,0,1-3.035-3.041V338.227c.015-1.724-.588-4.113-4.2-4.113a3.844,3.844,0,0,0-4.2,4.113Z" transform="translate(-305.745 -321.778)" fill="#001b33"/>
    <path id="Path_649" data-name="Path 649" d="M473.565,332.068V351.8l12.981-9.863Z" transform="translate(-292.643 -320.174)" fill="#0099d8"/>
    <path id="Path_650" data-name="Path 650" d="M416.435,351.684a3.954,3.954,0,0,1,.711,2.37,3.46,3.46,0,0,1-.717,2.285,3.708,3.708,0,0,1-1.183.885,3.464,3.464,0,0,1,1.791,1.37,4.107,4.107,0,0,1,.6,2.276,4.549,4.549,0,0,1-.689,2.475,4.275,4.275,0,0,1-2.85,2,10.737,10.737,0,0,1-2.191.211h-6.987V350.029h7.493a4.754,4.754,0,0,1,4.02,1.655m-8.419,1.042v3.424h3.769a3.118,3.118,0,0,0,1.639-.384,1.47,1.47,0,0,0,.629-1.365,1.389,1.389,0,0,0-.833-1.432,5.819,5.819,0,0,0-1.833-.243Zm0,5.994v4.141h3.764a3.661,3.661,0,0,0,1.57-.274,1.956,1.956,0,0,0,1.02-1.939,1.667,1.667,0,0,0-.988-1.664,3.942,3.942,0,0,0-1.55-.264Z" transform="translate(-329.635 -310.457)" fill="#001b33"/>
    <path id="Path_651" data-name="Path 651" d="M414.483,350.03h3.293v9.536a5.4,5.4,0,0,0,.377,2.338,3.148,3.148,0,0,0,5.1,0,5.4,5.4,0,0,0,.377-2.338V350.03h3.293v9.544a8,8,0,0,1-.768,3.856q-1.427,2.529-5.449,2.529t-5.462-2.529a8.018,8.018,0,0,1-.766-3.856Z" transform="translate(-324.483 -310.456)" fill="#001b33"/>
    <path id="Path_652" data-name="Path 652" d="M426.823,360.922a3.144,3.144,0,0,0,.591,1.592,3.436,3.436,0,0,0,2.761.959,5.9,5.9,0,0,0,1.9-.253,1.808,1.808,0,0,0,1.387-1.8,1.325,1.325,0,0,0-.679-1.19,7.382,7.382,0,0,0-2.153-.727l-1.679-.368a10.4,10.4,0,0,1-3.4-1.191,3.784,3.784,0,0,1-1.567-3.359,4.46,4.46,0,0,1,1.533-3.466,6.53,6.53,0,0,1,4.5-1.381,6.91,6.91,0,0,1,4.234,1.3,4.634,4.634,0,0,1,1.838,3.777h-3.115a2.217,2.217,0,0,0-1.251-1.991,4.266,4.266,0,0,0-1.93-.39,3.683,3.683,0,0,0-2.05.506,1.6,1.6,0,0,0-.765,1.412,1.327,1.327,0,0,0,.754,1.242,9.27,9.27,0,0,0,2.06.644l2.721.643a6.923,6.923,0,0,1,2.682,1.127,3.8,3.8,0,0,1,1.387,3.171,4.459,4.459,0,0,1-1.644,3.535,6.93,6.93,0,0,1-4.641,1.405,7.574,7.574,0,0,1-4.817-1.385,4.585,4.585,0,0,1-1.753-3.809Z" transform="translate(-319.499 -310.616)" fill="#001b33"/>
    <rect id="Rectangle_420" data-name="Rectangle 420" width="3.219" height="15.527" transform="translate(118.792 39.574)" fill="#001b33"/>
    <path id="Path_653" data-name="Path 653" d="M436.933,350.03h3.4l6.156,10.827V350.03H449.5v15.527h-3.239l-6.313-11.017v11.017h-3.019Z" transform="translate(-312.384 -310.457)" fill="#001b33"/>
    <path id="Path_654" data-name="Path 654" d="M458.177,352.779h-8.205v3.3H457.5v2.7h-7.533v3.991h8.584v2.792h-11.75V350.03h11.371Z" transform="translate(-307.063 -310.457)" fill="#001b33"/>
    <path id="Path_655" data-name="Path 655" d="M458.253,360.922a3.158,3.158,0,0,0,.591,1.592,3.436,3.436,0,0,0,2.761.959,5.9,5.9,0,0,0,1.9-.253,1.805,1.805,0,0,0,1.385-1.8,1.324,1.324,0,0,0-.677-1.19,7.38,7.38,0,0,0-2.155-.727l-1.677-.368a10.411,10.411,0,0,1-3.4-1.191,3.785,3.785,0,0,1-1.568-3.359,4.461,4.461,0,0,1,1.534-3.466,6.529,6.529,0,0,1,4.5-1.381,6.91,6.91,0,0,1,4.234,1.3,4.63,4.63,0,0,1,1.838,3.777h-3.115a2.217,2.217,0,0,0-1.251-1.991,4.266,4.266,0,0,0-1.93-.39,3.683,3.683,0,0,0-2.05.506,1.6,1.6,0,0,0-.766,1.412,1.328,1.328,0,0,0,.756,1.242,9.274,9.274,0,0,0,2.06.644l2.721.643a6.922,6.922,0,0,1,2.682,1.127,3.8,3.8,0,0,1,1.387,3.171,4.46,4.46,0,0,1-1.644,3.535,6.925,6.925,0,0,1-4.641,1.405,7.574,7.574,0,0,1-4.817-1.385,4.587,4.587,0,0,1-1.754-3.809Z" transform="translate(-302.561 -310.616)" fill="#001b33"/>
    <path id="Path_656" data-name="Path 656" d="M467.342,360.922a3.143,3.143,0,0,0,.591,1.592,3.432,3.432,0,0,0,2.759.959,5.9,5.9,0,0,0,1.9-.253,1.807,1.807,0,0,0,1.385-1.8,1.326,1.326,0,0,0-.679-1.19,7.351,7.351,0,0,0-2.153-.727l-1.677-.368a10.4,10.4,0,0,1-3.4-1.191,3.785,3.785,0,0,1-1.568-3.359,4.465,4.465,0,0,1,1.533-3.466,6.536,6.536,0,0,1,4.506-1.381,6.91,6.91,0,0,1,4.234,1.3,4.632,4.632,0,0,1,1.836,3.777H473.5a2.222,2.222,0,0,0-1.251-1.991,4.275,4.275,0,0,0-1.93-.39,3.68,3.68,0,0,0-2.05.506,1.6,1.6,0,0,0-.766,1.412,1.329,1.329,0,0,0,.756,1.242,9.273,9.273,0,0,0,2.061.644l2.721.643a6.923,6.923,0,0,1,2.682,1.127,3.8,3.8,0,0,1,1.387,3.171,4.459,4.459,0,0,1-1.643,3.535,6.93,6.93,0,0,1-4.641,1.405A7.57,7.57,0,0,1,466,364.732a4.587,4.587,0,0,1-1.754-3.809Z" transform="translate(-297.663 -310.616)" fill="#001b33"/>
  </g>
</svg>
